<svg width="32" height="32" viewBox="0 0 32 32" fill="none" xmlns="http://www.w3.org/2000/svg">
<path fill-rule="evenodd" clip-rule="evenodd" d="M16.3979 1H15.6049C15.2739 1 15.0049 1.26903 15.0049 1.60006V4.39234C15.0049 4.72337 15.2739 4.9924 15.6049 4.9924H16.3979C16.7289 4.9924 16.9979 4.72337 16.9979 4.39234V1.60006C16.9979 1.26903 16.7289 1 16.3979 1ZM1.6 16.9982H4.396C4.727 16.9982 4.996 16.7292 4.996 16.3982V15.5981C4.996 15.2671 4.727 14.998 4.396 14.998H1.6C1.269 14.998 1 15.2671 1 15.5981V16.3982C1 16.7292 1.269 16.9982 1.6 16.9982ZM27.6 14.998H30.4C30.731 14.998 31 15.2671 31 15.5981V16.3982C31 16.7292 30.731 16.9982 30.4 16.9982H27.6C27.269 16.9982 27 16.7292 27 16.3982V15.5981C27 15.2671 27.269 14.998 27.6 14.998ZM16.4 27.002C16.731 27.002 17 27.271 17 27.603V30.4003C17 30.7313 16.731 31.0004 16.4 31.0004H15.6C15.269 31.0004 15 30.7313 15 30.4003V27.602C15 27.271 15.269 27.002 15.6 27.002H16.4ZM16 9.99805C12.692 9.99805 10 12.6903 10 15.9986C10 19.307 12.692 21.9992 16 21.9992C19.308 21.9992 22 19.307 22 15.9986C22 12.6903 19.308 9.99805 16 9.99805ZM24 15.9988C24 11.5874 20.411 7.99805 16 7.99805C11.589 7.99805 8 11.5874 8 15.9988C8 20.4103 11.589 23.9996 16 23.9996C20.411 23.9996 24 20.4103 24 15.9988ZM8.504 7.08531L6.528 5.10911C6.294 4.87509 5.914 4.87509 5.679 5.10911L5.113 5.67417C4.879 5.90819 4.879 6.28823 5.113 6.52325L7.09 8.50045C7.324 8.73447 7.704 8.73447 7.939 8.50045L8.505 7.93439C8.739 7.70037 8.739 7.32033 8.504 7.08531ZM24.9118 23.4949L26.8918 25.4751C27.1268 25.7101 27.1268 26.0901 26.8918 26.3241L26.3258 26.8902C26.0908 27.1242 25.7108 27.1242 25.4768 26.8902L23.4968 24.91C23.2628 24.675 23.2628 24.2949 23.4968 24.0609L24.0628 23.4949C24.2978 23.2608 24.6778 23.2608 24.9118 23.4949ZM26.8896 5.68493L26.3236 5.11888C26.0896 4.88485 25.7096 4.88485 25.4746 5.11888L23.5036 7.09007C23.2696 7.3241 23.2696 7.70414 23.5036 7.93916L24.0696 8.50522C24.3036 8.73924 24.6836 8.73924 24.9186 8.50522L26.8896 6.53402C27.1236 6.299 27.1236 5.91896 26.8896 5.68493ZM7.94 23.4968L8.506 24.0629C8.74 24.2969 8.74 24.6769 8.506 24.9119L6.528 26.8901C6.293 27.1242 5.913 27.1242 5.679 26.8901L5.113 26.3241C4.879 26.0891 4.879 25.709 5.113 25.475L7.091 23.4968C7.326 23.2628 7.706 23.2628 7.94 23.4968Z" fill="#C9C9D1"/>
</svg>
