<svg width="64" height="64" viewBox="0 0 64 64" fill="none" xmlns="http://www.w3.org/2000/svg">
<g opacity="0.6" clip-path="url(#clip0_4009_108859)">
<path d="M0 14C0 14 13.3972 14.1849 21.5 16.5C32 19.5 48 26 48 26C48.1493 26.0531 45.6072 27.6196 43.9282 28.6387C43.2823 29.0307 43.275 29.9828 43.8946 30.4153C45.0044 31.1899 46.5124 32.3541 47.3909 33.4999C48.9034 35.4725 48.6287 39.0129 47.8951 41.8834C46.3826 47.8012 45.8784 48.6889 42.8535 49.2807C37.8119 50.267 30.9251 51.0067 28.737 51.2533" stroke="#646669" stroke-width="4" stroke-miterlimit="10"/>
<path d="M0 14.4297C0 14.4297 13.3972 14.6146 21.5 16.9297C32 19.9297 48 26.4297 48 26.4297C48.1839 26.4951 41.3077 29.888 38.9503 31.0467C38.5008 31.2676 38.2881 31.7843 38.4465 32.2595L39.9561 36.7883C40.0853 37.1758 40.4371 37.4457 40.8448 37.4703L47.5539 37.8736C48.0792 37.9052 48.4932 38.3389 48.4603 38.8641C48.3875 40.0285 48.1746 41.2194 47.8951 42.3131C46.3826 48.2309 45.8784 49.1186 42.8535 49.7104C37.8119 50.6967 30.9251 51.4364 28.737 51.683" stroke="#646669" stroke-width="4" stroke-miterlimit="10"/>
<path d="M20.8936 58C26.1403 58 30.3936 53.7467 30.3936 48.5C30.3936 43.2533 26.1403 39 20.8936 39C15.6468 39 11.3936 43.2533 11.3936 48.5C11.3936 53.7467 15.6468 58 20.8936 58Z" stroke="#646669" stroke-width="4" stroke-miterlimit="10" stroke-linecap="round"/>
<path d="M11 50L0 50" stroke="#646669" stroke-width="4" stroke-miterlimit="10"/>
</g>
<defs>
<clipPath id="clip0_4009_108859">
<rect width="64" height="64" fill="white"/>
</clipPath>
</defs>
</svg>
