<svg width="32" height="32" viewBox="0 0 32 32" fill="none" xmlns="http://www.w3.org/2000/svg">
<circle cx="16" cy="16" r="15" stroke="#C9C9D1" stroke-width="2"/>
<path d="M14.957 20.064C14.813 20.064 14.693 20.024 14.597 19.944C14.501 19.848 14.453 19.72 14.453 19.56C14.453 19.4 14.453 19.24 14.453 19.08C14.453 18.92 14.453 18.76 14.453 18.6C14.485 17.912 14.637 17.304 14.909 16.776C15.181 16.248 15.509 15.768 15.893 15.336C16.293 14.904 16.693 14.496 17.093 14.112C17.493 13.712 17.829 13.312 18.101 12.912C18.389 12.512 18.565 12.088 18.629 11.64C18.693 11.064 18.581 10.584 18.293 10.2C18.005 9.8 17.613 9.496 17.117 9.288C16.621 9.08 16.109 8.976 15.581 8.976C14.733 8.976 14.005 9.2 13.397 9.648C12.805 10.08 12.413 10.816 12.221 11.856C12.173 12.048 12.093 12.184 11.981 12.264C11.869 12.344 11.741 12.384 11.597 12.384H10.445C10.301 12.384 10.173 12.336 10.061 12.24C9.965 12.144 9.917 12.016 9.917 11.856C9.933 11.2 10.077 10.576 10.349 9.984C10.621 9.392 11.005 8.872 11.501 8.424C12.013 7.976 12.613 7.624 13.301 7.368C14.005 7.096 14.789 6.96 15.653 6.96C16.629 6.96 17.461 7.096 18.149 7.368C18.853 7.624 19.413 7.976 19.829 8.424C20.261 8.856 20.573 9.336 20.765 9.864C20.957 10.392 21.037 10.92 21.005 11.448C20.957 12.088 20.797 12.664 20.525 13.176C20.253 13.672 19.925 14.136 19.541 14.568C19.157 14.984 18.765 15.4 18.365 15.816C17.981 16.216 17.645 16.64 17.357 17.088C17.085 17.52 16.933 17.992 16.901 18.504C16.885 18.68 16.869 18.856 16.853 19.032C16.853 19.192 16.853 19.352 16.853 19.512C16.821 19.688 16.757 19.824 16.661 19.92C16.565 20.016 16.429 20.064 16.253 20.064H14.957ZM14.765 24C14.605 24 14.469 23.952 14.357 23.856C14.261 23.744 14.213 23.608 14.213 23.448V21.984C14.213 21.824 14.261 21.696 14.357 21.6C14.469 21.488 14.605 21.432 14.765 21.432H16.325C16.501 21.432 16.637 21.488 16.733 21.6C16.845 21.696 16.901 21.824 16.901 21.984V23.448C16.901 23.608 16.845 23.744 16.733 23.856C16.637 23.952 16.501 24 16.325 24H14.765Z" fill="#C9C9D1"/>
</svg>
