<svg width="104" height="102" viewBox="0 0 104 102" fill="none" xmlns="http://www.w3.org/2000/svg">
<path fill-rule="evenodd" clip-rule="evenodd" d="M80.3744 31.2076C79.831 30.6678 78.951 30.6678 78.4077 31.2076L77.1058 32.504C76.5613 33.0463 76.5613 33.9226 77.1046 34.4625L91.4927 48.7916C92.0361 49.3339 92.9161 49.3339 93.4595 48.7916L94.7637 47.494C95.3071 46.953 95.3071 46.0754 94.7637 45.5356L80.3744 31.2076ZM57.4741 54.0113C56.9308 53.4702 56.0508 53.4702 55.5074 54.0113L54.2044 55.3064C53.661 55.8475 53.661 56.7251 54.2044 57.2649L68.5925 71.5953C69.1358 72.1364 70.0159 72.1364 70.5592 71.5953L71.8635 70.2965C72.4068 69.7554 72.4068 68.8779 71.8635 68.338L57.4741 54.0113ZM57.4741 8.40489C56.9308 7.86504 56.0508 7.86504 55.5074 8.40489L54.2044 9.70127C53.661 10.2423 53.661 11.1187 54.2044 11.661L68.5925 25.9889C69.1358 26.5312 70.0159 26.5312 70.5592 25.9889L71.8635 24.6913C72.4068 24.1502 72.4068 23.2727 71.8635 22.7316L57.4741 8.40489ZM34.5757 31.2076C34.0324 30.6678 33.1523 30.6678 32.609 31.2076L31.3059 32.504C30.7626 33.0463 30.7626 33.9226 31.3059 34.4625L45.6941 48.7916C46.2375 49.3339 47.1175 49.3339 47.6609 48.7916L48.9651 47.494C49.5085 46.953 49.5085 46.0754 48.9651 45.5356L34.5757 31.2076ZM47.6611 54.0074C47.119 53.4663 46.2378 53.4663 45.6944 54.0074L31.305 68.3353C30.7629 68.8752 30.7629 69.7527 31.305 70.2938L32.6093 71.5926C33.1526 72.1337 34.0327 72.1337 34.576 71.5914L48.9642 57.2622C49.5063 56.7224 49.5063 55.8448 48.9642 55.3037L47.6611 54.0074ZM55.5086 48.7906C56.052 49.3329 56.9332 49.3329 57.4765 48.7906L71.8634 34.4614C72.4055 33.9204 72.4055 33.0452 71.8634 32.503L70.5616 31.2066C70.0182 30.6655 69.137 30.6655 68.5949 31.2066L54.2044 45.5345C53.661 46.0744 53.661 46.9519 54.2044 47.493L55.5086 48.7906ZM24.7635 31.2066C24.2214 30.6655 23.3401 30.6655 22.7968 31.2066L8.4075 45.5345C7.86417 46.0744 7.86417 46.9519 8.4075 47.493L9.71175 48.7906C10.2551 49.3329 11.1363 49.3329 11.6785 48.7906L26.0653 34.4614C26.6086 33.9204 26.6086 33.0452 26.0665 32.503L24.7635 31.2066ZM31.325 24.7121C30.7719 24.1602 30.7719 23.2656 31.325 22.7137L45.6754 8.42569C46.2297 7.87373 47.1279 7.87373 47.6822 8.42569L48.9451 9.68333C49.4982 10.2353 49.4982 11.1298 48.9451 11.6806L34.5971 25.971C34.0429 26.5229 33.1446 26.5229 32.5903 25.971L31.325 24.7121Z" fill="#C9C9D1"/>
<path fill-rule="evenodd" clip-rule="evenodd" d="M95 101C95 101.552 94.5523 102 94 102L9 102C8.44772 102 8 101.552 8 101V100C8 99.4477 8.44772 99 9 99L94 99C94.5523 99 95 99.4477 95 100V101Z" fill="#C9C9D1"/>
<g filter="url(#filter0_d_4001_86295)">
<path fill-rule="evenodd" clip-rule="evenodd" d="M80.3744 31.2076C79.831 30.6678 78.951 30.6678 78.4077 31.2076L77.1058 32.504C76.5613 33.0463 76.5613 33.9226 77.1046 34.4625L91.4927 48.7916C92.0361 49.3339 92.9161 49.3339 93.4595 48.7916L94.7637 47.494C95.3071 46.953 95.3071 46.0754 94.7637 45.5356L80.3744 31.2076ZM57.4741 54.0113C56.9308 53.4702 56.0508 53.4702 55.5074 54.0113L54.2044 55.3064C53.661 55.8475 53.661 56.7251 54.2044 57.2649L68.5925 71.5953C69.1358 72.1364 70.0159 72.1364 70.5592 71.5953L71.8635 70.2965C72.4068 69.7554 72.4068 68.8779 71.8635 68.338L57.4741 54.0113ZM57.4741 8.40489C56.9308 7.86504 56.0508 7.86504 55.5074 8.40489L54.2044 9.70127C53.661 10.2423 53.661 11.1187 54.2044 11.661L68.5925 25.9889C69.1358 26.5312 70.0159 26.5312 70.5592 25.9889L71.8635 24.6913C72.4068 24.1502 72.4068 23.2727 71.8635 22.7316L57.4741 8.40489ZM34.5757 31.2076C34.0324 30.6678 33.1523 30.6678 32.609 31.2076L31.3059 32.504C30.7626 33.0463 30.7626 33.9226 31.3059 34.4625L45.6941 48.7916C46.2375 49.3339 47.1175 49.3339 47.6609 48.7916L48.9651 47.494C49.5085 46.953 49.5085 46.0754 48.9651 45.5356L34.5757 31.2076ZM47.6611 54.0074C47.119 53.4663 46.2378 53.4663 45.6944 54.0074L31.305 68.3353C30.7629 68.8752 30.7629 69.7527 31.305 70.2938L32.6093 71.5926C33.1526 72.1337 34.0327 72.1337 34.576 71.5914L48.9642 57.2622C49.5063 56.7224 49.5063 55.8448 48.9642 55.3037L47.6611 54.0074ZM55.5086 48.7906C56.052 49.3329 56.9332 49.3329 57.4765 48.7906L71.8634 34.4614C72.4055 33.9204 72.4055 33.0452 71.8634 32.503L70.5616 31.2066C70.0182 30.6655 69.137 30.6655 68.5949 31.2066L54.2044 45.5345C53.661 46.0744 53.661 46.9519 54.2044 47.493L55.5086 48.7906ZM24.7635 31.2066C24.2214 30.6655 23.3401 30.6655 22.7968 31.2066L8.4075 45.5345C7.86417 46.0744 7.86417 46.9519 8.4075 47.493L9.71175 48.7906C10.2551 49.3329 11.1363 49.3329 11.6785 48.7906L26.0653 34.4614C26.6086 33.9204 26.6086 33.0452 26.0665 32.503L24.7635 31.2066ZM31.325 24.7121C30.7719 24.1602 30.7719 23.2656 31.325 22.7137L45.6754 8.42569C46.2297 7.87373 47.1279 7.87373 47.6822 8.42569L48.9451 9.68333C49.4982 10.2353 49.4982 11.1298 48.9451 11.6806L34.5971 25.971C34.0429 26.5229 33.1446 26.5229 32.5903 25.971L31.325 24.7121Z" fill="#C9C9D1"/>
</g>
<defs>
<filter id="filter0_d_4001_86295" x="0" y="0" width="103.171" height="80.001" filterUnits="userSpaceOnUse" color-interpolation-filters="sRGB">
<feFlood flood-opacity="0" result="BackgroundImageFix"/>
<feColorMatrix in="SourceAlpha" type="matrix" values="0 0 0 0 0 0 0 0 0 0 0 0 0 0 0 0 0 0 127 0" result="hardAlpha"/>
<feOffset/>
<feGaussianBlur stdDeviation="4"/>
<feComposite in2="hardAlpha" operator="out"/>
<feColorMatrix type="matrix" values="0 0 0 0 0.941176 0 0 0 0 0.941176 0 0 0 0 0.941176 0 0 0 0.6 0"/>
<feBlend mode="normal" in2="BackgroundImageFix" result="effect1_dropShadow_4001_86295"/>
<feBlend mode="normal" in="SourceGraphic" in2="effect1_dropShadow_4001_86295" result="shape"/>
</filter>
</defs>
</svg>
