<svg width="48" height="48" viewBox="0 0 48 48" fill="none" xmlns="http://www.w3.org/2000/svg">
<path fill-rule="evenodd" clip-rule="evenodd" d="M27.0996 10.4004C27.0996 10.3066 27.0629 10.2172 26.9775 10.1396C26.8872 10.0575 26.7516 10 26.5996 10H21.5C21.3482 10 21.2134 10.0577 21.123 10.1396C21.0377 10.2172 21 10.3066 21 10.4004V13.4625C21.948 13.1621 22.956 13 24 13C25.0807 13 26.1227 13.1737 27.0996 13.4946V10.4004ZM19 10.4004V14.3487C16.0167 16.0843 14 19.3181 14 23C14 28.5 18.5 33 24 33C29.5 33 34 28.5 34 23C34 19.3592 32.0281 16.1566 29.0996 14.4074V10.4004C29.0996 8.96055 27.8601 8 26.5996 8H21.5C20.2395 8 19 8.96055 19 10.4004ZM24 15C28.4 15 32 18.6 32 23C32 27.4 28.4 31 24 31C19.6 31 16 27.4 16 23C16 18.6 19.6 15 24 15ZM23 36.2998V39C23.0001 39.5522 23.4478 40 24 40C24.5522 40 24.9999 39.5522 25 39V36.2998C25 35.7475 24.5523 35.2998 24 35.2998C23.4477 35.2998 23 35.7475 23 36.2998ZM13.8936 31.6934C14.2841 31.303 14.9172 31.3029 15.3076 31.6934C15.6979 32.0838 15.6979 32.7169 15.3076 33.1074L13.4072 35.0078C13.0168 35.3981 12.3836 35.3981 11.9932 35.0078C11.6027 34.6174 11.6028 33.9843 11.9932 33.5938L13.8936 31.6934ZM11.7002 23C11.7002 22.4478 11.2524 22.0001 10.7002 22H8C7.44772 22 7 22.4477 7 23C7 23.5523 7.44772 24 8 24H10.7002C11.2524 23.9999 11.7002 23.5522 11.7002 23ZM11.9932 10.9932C12.3837 10.6026 13.0167 10.6026 13.4072 10.9932L15.3076 12.8936C15.6978 13.2841 15.698 13.9172 15.3076 14.3076C14.9172 14.698 14.2841 14.6978 13.8936 14.3076L11.9932 12.4072C11.6026 12.0167 11.6026 11.3837 11.9932 10.9932ZM36.0078 10.9932C35.6174 10.6027 34.9843 10.6028 34.5938 10.9932L32.6934 12.8936C32.303 13.2841 32.3029 13.9172 32.6934 14.3076C33.0838 14.6979 33.7169 14.6979 34.1074 14.3076L36.0078 12.4072C36.3981 12.0168 36.3981 11.3836 36.0078 10.9932ZM40 22C40.5522 22.0001 41 22.4478 41 23C41 23.5522 40.5522 23.9999 40 24H37.2998C36.7475 24 36.2998 23.5523 36.2998 23C36.2998 22.4477 36.7475 22 37.2998 22H40ZM34.1074 31.6934C33.7169 31.3028 33.0839 31.3028 32.6934 31.6934C32.3028 32.0839 32.3028 32.7169 32.6934 33.1074L34.5938 35.0078C34.9843 35.3979 35.6174 35.3982 36.0078 35.0078C36.3982 34.6174 36.3979 33.9843 36.0078 33.5938L34.1074 31.6934Z" fill="#C9C9D1"/>
</svg>
