<svg width="64" height="64" viewBox="0 0 64 64" fill="none" xmlns="http://www.w3.org/2000/svg">
<path d="M47.6803 25.7212L44.5295 24.0324C47.0355 20.0028 45.5419 14.8319 41.2018 12.5056C36.8632 10.1802 31.2927 11.5648 28.7868 15.5944L25.636 13.9056C29.1453 8.26274 36.9448 6.32354 43.021 9.58036C49.0988 12.838 51.1896 20.0783 47.6803 25.7212Z" fill="#C9C9D1"/>
<path d="M47.6803 25.7212L44.0447 31.5685L22 19.7528L25.636 13.9056L28.7868 15.5944L25.1492 21.4407L40.8955 29.8806L44.5316 24.0338L47.6803 25.7212Z" fill="#C9C9D1"/>
<path d="M33.8182 45.8726H30.1818V39.1208H33.8182V45.8726Z" fill="#C9C9D1"/>
<path fill-rule="evenodd" clip-rule="evenodd" d="M12 28.9932V56.0002H52V28.9932H12ZM15.6364 52.6243H48.3636V32.369H15.6364V52.6243Z" fill="#C9C9D1"/>
</svg>
