<svg width="64" height="64" viewBox="0 0 64 64" fill="none" xmlns="http://www.w3.org/2000/svg">
<path d="M44.255 25.0394L40.6842 25.0526C40.6794 20.1307 36.6645 16.1413 31.7357 16.1587C26.8088 16.1762 22.8007 20.1939 22.8055 25.1158L19.2285 25.1285C19.2217 18.2361 24.832 12.6101 31.7322 12.5857C38.6343 12.5613 44.2483 18.147 44.255 25.0394Z" fill="#C9C9D1"/>
<path d="M44.255 25.0394L44.2627 32.1812L19.2357 32.2703L19.2285 25.1285L22.8055 25.1158L22.811 32.2576L40.6875 32.1939L40.6805 25.0524L44.255 25.0394Z" fill="#C9C9D1"/>
<path d="M33.8182 45.8721H30.1818V39.1203H33.8182V45.8721Z" fill="#C9C9D1"/>
<path fill-rule="evenodd" clip-rule="evenodd" d="M12 28.9927V55.9997H52V28.9927H12ZM15.6364 52.6239H48.3636V32.3686H15.6364V52.6239Z" fill="#C9C9D1"/>
</svg>
