<svg width="64" height="64" viewBox="0 0 64 64" fill="none" xmlns="http://www.w3.org/2000/svg">
<path d="M40 32V36H8V32H40ZM40 16H8V36C5.85996 36 4.11211 34.3194 4.00488 32.2061L4 32V16C4 13.7909 5.79086 12 8 12H40L40.2061 12.0049C42.3194 12.1121 44 13.86 44 16V32L43.9951 32.2061C43.8913 34.2512 42.2512 35.8913 40.2061 35.9951L40 36V16Z" fill="#C9C9D1"/>
<path fill-rule="evenodd" clip-rule="evenodd" d="M50.3577 29.3692C50.3577 28.6099 50.9617 28 51.6988 28H52.3018C53.0389 28 53.643 28.6099 53.643 29.3692V45.5912L57.2848 41.8819L57.2862 41.8804C57.8092 41.3502 58.6555 41.3482 59.1794 41.8818L59.6074 42.3176C60.1301 42.852 60.132 43.7199 59.6061 44.2555L52.0004 52L44.3939 44.2563L44.3925 44.2549C43.8699 43.7204 43.8679 42.8525 44.3938 42.317L44.8218 41.8812C45.3447 41.351 46.1911 41.349 46.715 41.8825L50.3577 45.5917V29.3692Z" fill="#C9C9D1"/>
</svg>
