<svg width="64" height="64" viewBox="0 0 64 64" fill="none" xmlns="http://www.w3.org/2000/svg">
<path fill-rule="evenodd" clip-rule="evenodd" d="M52 13.1575L51.2416 12.6428C50.4827 12.1279 49.3179 11.94 48.1249 12.0163C46.9145 12.0938 45.5869 12.4476 44.4539 13.1127C41.5853 14.7966 39.4957 18.0846 39.718 22.9235C39.7556 23.7426 40.4729 24.3173 41.2504 24.2608L42.0853 24.2001C42.8515 24.1443 43.4342 23.5056 43.4464 22.7474C43.479 20.7142 43.6387 19.4231 44.026 18.4906C44.399 17.5925 45.0014 16.9862 46.0444 16.374C46.4081 16.1605 46.6961 15.968 46.9331 15.8084L46.9567 15.7926L46.9567 15.7925C47.188 15.6368 47.352 15.5265 47.5019 15.4459C47.6153 15.3849 47.7068 15.349 47.793 15.3299L37.6637 45.0391L16.3396 48.5135L16.3373 48.5139C16.1107 48.5485 15.9109 48.573 15.7383 48.5793C15.5611 48.5857 15.444 48.5714 15.3721 48.5486C15.339 48.5381 15.3233 48.5282 15.3174 48.5238C15.313 48.5205 15.3116 48.5187 15.3097 48.5153C15.305 48.5071 15.2748 48.4462 15.2932 48.2711C15.5436 45.8914 16.3419 44.7788 17.5119 43.1482L17.5119 43.1482L17.6019 43.0228C18.3793 41.9384 18.9265 41.4154 19.6364 41.161C20.3733 40.897 21.3577 40.894 23.0912 41.078L32.2388 42.5123C33.0152 42.634 33.7484 42.1179 33.8978 41.3446L34.0519 40.5468C34.208 39.7381 33.6679 38.9596 32.8571 38.825L23.7034 37.3049L23.6969 37.3039C19.631 36.6859 16.5642 37.9648 14.5535 40.7691C13.0924 42.807 12.3188 45.4429 12.019 48.2925C11.7889 50.4799 13.6836 52.2929 15.8564 51.9605L40.0432 48.2679L52 13.1575Z" fill="#C9C9D1"/>
<path fill-rule="evenodd" clip-rule="evenodd" d="M18.0336 30.4767C18.3457 31.004 18.0751 31.6388 17.4309 31.8933C17.2484 31.9647 17.0564 31.9986 16.8671 31.9993C16.3845 31.9993 15.9219 31.7788 15.698 31.4006C13.654 27.9435 15.1563 25.307 16.4818 22.9808L16.4823 22.9801C17.7223 20.8071 18.7919 18.9296 17.283 16.3791C16.9708 15.8518 17.2415 15.217 17.8857 14.9625C18.5316 14.7073 19.3073 14.9286 19.6186 15.4552C21.6626 18.9122 20.1602 21.5487 18.8347 23.8749L18.8343 23.8757C17.5943 26.0487 16.5246 27.9262 18.0336 30.4767ZM23.5344 31.8933C24.1786 31.6388 24.4492 31.004 24.1371 30.4767C22.6281 27.9262 23.6978 26.0487 24.9378 23.8757L24.9382 23.8749C26.2638 21.5487 27.7661 18.9122 25.7221 15.4552C25.4108 14.9286 24.6352 14.7073 23.9892 14.9625C23.345 15.217 23.0743 15.8518 23.3865 16.3791C24.8954 18.9296 23.8258 20.8071 22.5858 22.9801L22.5853 22.9808C21.2598 25.307 19.7575 27.9435 21.8015 31.4006C22.0254 31.7788 22.4881 31.9993 22.9706 31.9993C23.1599 31.9986 23.3519 31.9647 23.5344 31.8933ZM29.635 31.8933C30.2792 31.6388 30.5498 31.004 30.2377 30.4767C28.7287 27.9262 29.7984 26.0487 31.0384 23.8757L31.0388 23.8749C32.3643 21.5488 33.8667 18.9122 31.8227 15.4552C31.5114 14.9286 30.7357 14.7073 30.0898 14.9625C29.4456 15.217 29.1749 15.8518 29.4871 16.3791C30.996 18.9296 29.9264 20.8071 28.6864 22.9801L28.6859 22.9808C27.3604 25.307 25.8581 27.9435 27.9021 31.4006C28.126 31.7788 28.5886 31.9993 29.0712 31.9993C29.2605 31.9986 29.4525 31.9647 29.635 31.8933Z" fill="#C9C9D1"/>
</svg>
