<svg width="64" height="64" viewBox="0 0 64 64" fill="none" xmlns="http://www.w3.org/2000/svg">
<path fill-rule="evenodd" clip-rule="evenodd" d="M41.7355 19.8933C42.3798 19.6388 42.6504 19.004 42.3383 18.4767C40.8293 15.9262 41.899 14.0487 43.139 11.8757L43.1394 11.8749C44.4649 9.54875 45.9673 6.91224 43.9233 3.45521C43.612 2.92857 42.8363 2.70732 42.1904 2.9625C41.5462 3.21699 41.2755 3.85177 41.5877 4.37912C43.0966 6.92958 42.027 8.80709 40.7869 10.9801L40.7865 10.9808C39.461 13.307 37.9587 15.9435 40.0026 19.4006C40.2266 19.7788 40.6892 19.9993 41.1717 19.9993C41.3611 19.9986 41.5531 19.9647 41.7355 19.8933ZM48.4418 18.4767C48.7539 19.004 48.4833 19.6388 47.8391 19.8933C47.6566 19.9647 47.4646 19.9986 47.2753 19.9993C46.7927 19.9993 46.3301 19.7788 46.1062 19.4006C44.0622 15.9435 45.5645 13.307 46.89 10.9808L46.8905 10.9801C48.1305 8.80709 49.2001 6.92958 47.6912 4.37912C47.379 3.85177 47.6497 3.21699 48.2939 2.9625C48.9398 2.70732 49.7155 2.92857 50.0268 3.45521C52.0708 6.91224 50.5684 9.54875 49.2429 11.8749L49.2425 11.8757C48.0025 14.0487 46.9328 15.9262 48.4418 18.4767ZM54.5424 18.4767C54.8545 19.004 54.5839 19.6388 53.9396 19.8933C53.7572 19.9647 53.5652 19.9986 53.3758 19.9993C52.8933 19.9993 52.4307 19.7788 52.2067 19.4006C50.1628 15.9435 51.6651 13.307 52.9906 10.9808L52.991 10.9801C54.2311 8.80709 55.3007 6.92958 53.7918 4.37912C53.4796 3.85177 53.7503 3.21699 54.3945 2.9625C55.0404 2.70732 55.8161 2.92857 56.1274 3.45521C58.1714 6.91224 56.669 9.54875 55.3435 11.8749L55.3431 11.8757C54.1031 14.0487 53.0334 15.9262 54.5424 18.4767ZM27.1059 49.037H28.4639C31.7658 49.037 34.8689 47.7743 37.2052 45.4839C39.0243 43.6986 40.2065 41.4558 40.6396 39.0179C38.818 38.8929 36.5275 38.7229 35.9925 38.6778C35.1925 38.6153 34.9428 38.5603 34.7161 38.4153C34.474 38.2528 33.7607 37.4977 33.2307 36.4725C32.632 35.3223 32.4282 34.6422 32.3186 34.1771C32.2702 33.9796 32.2702 33.8321 32.3135 33.7671C32.3492 33.7146 32.4562 33.6696 32.6218 33.6446C33.004 33.5746 34.581 33.4645 35.6613 33.4645C35.8931 33.4645 36.0868 33.4695 36.2294 33.482C37.0651 33.5445 37.4575 33.7221 38.0893 34.0846C38.3309 34.2249 38.8204 34.5595 39.3458 34.9185L39.3988 34.9548C39.9645 35.3423 40.446 35.6699 40.8256 35.8974C40.8256 32.4419 39.4549 29.1939 36.9632 26.751C34.4766 24.3081 31.1645 22.9629 27.646 22.9629H20.3569C16.8359 22.9629 13.5238 24.3081 11.0372 26.751C8.5455 29.1939 7.1748 32.4419 7.1748 35.9124C7.55187 35.6699 8.03595 35.3423 8.599 34.9548L8.64885 34.9207C9.17541 34.5609 9.66657 34.2252 9.9111 34.0846C10.5455 33.7221 10.9327 33.5445 11.771 33.482C11.9136 33.4695 12.1073 33.4645 12.3417 33.4645C13.4194 33.4645 14.9964 33.5746 15.3811 33.6446C15.5442 33.6696 15.6512 33.7146 15.6869 33.7671C15.7302 33.8321 15.7276 33.9796 15.6818 34.1771C15.5722 34.6422 15.3709 35.3223 14.7697 36.4725C14.2372 37.4977 13.5264 38.2528 13.2818 38.4153C13.055 38.5603 12.8079 38.6153 12.0079 38.6778C11.4703 38.7229 9.18244 38.8929 7.36079 39.0179C7.79391 41.4558 8.97607 43.6986 10.7952 45.4839C13.1315 47.7743 16.2346 49.037 19.534 49.037H20.8945C20.5454 48.1923 19.9046 46.7309 19.2528 45.2445C18.525 43.5849 17.7836 41.894 17.4193 40.9957C16.6627 39.1254 16.5429 37.4602 16.5429 36.6525C16.5429 32.6119 19.8805 29.3339 24.0002 29.3339C28.1199 29.3339 31.4575 32.6119 31.4575 36.6525C31.4575 37.4602 31.3377 39.1254 30.5811 40.9957C30.2146 41.9029 29.4619 43.6184 28.7269 45.2938C28.0822 46.7632 27.4511 48.2017 27.1059 49.037ZM24.6911 49.0371C24.8882 49.0371 25.396 48.8827 25.6653 48.1856C25.9345 47.4859 28.127 42.5186 28.127 42.5186C26.8836 43.0922 25.4849 43.4163 24 43.4163C22.5152 43.4163 21.1136 43.0922 19.873 42.5186C19.873 42.5186 22.0656 47.4859 22.3348 48.1856C22.604 48.8827 23.1119 49.0371 23.3062 49.0371H24H24.6911ZM20.3908 20H27.6142C36.663 20 44 27.1187 44 35.9008V36.888C44 45.0625 37.3119 51.7207 28.9523 51.9902V51.9927C28.7882 51.9976 28.6216 52 28.455 52H26.0968H21.9032H19.5476C19.3784 52 19.2143 51.9976 19.0477 51.9927V51.9902C10.6907 51.7207 4 45.0625 4 36.888V35.9008C4 27.1187 11.3395 20 20.3908 20Z" fill="#C9C9D1"/>
</svg>
