<svg width="64" height="64" viewBox="0 0 64 64" fill="none" xmlns="http://www.w3.org/2000/svg">
<path fill-rule="evenodd" clip-rule="evenodd" d="M53.0157 13.5869L53.0157 6.5548L55.2131 8.61234C55.5292 8.9083 56.0398 8.90721 56.3552 8.6131L56.6134 8.37136C56.9307 8.0743 56.9286 7.59204 56.6134 7.29557L52.0247 3L47.4366 7.29603C47.1193 7.59309 47.1205 8.07455 47.4358 8.37102L47.694 8.61276C48.01 8.90872 48.5214 8.90683 48.8369 8.61271L51.0338 6.55505L51.0338 13.5885L43.4357 13.5885L45.4245 11.3152C45.7106 10.9882 45.7096 10.46 45.4253 10.1336L45.1916 9.86654C44.9045 9.53832 44.4383 9.54041 44.1517 9.86658L39.9996 14.6137L44.1522 19.3603C44.4393 19.6885 44.9047 19.6873 45.1913 19.3611L45.425 19.094C45.711 18.767 45.7092 18.2379 45.4249 17.9116L43.4359 15.6388H51.0331V23.4453L48.8357 21.3878C48.5196 21.0918 48.0091 21.0929 47.6936 21.387L47.4354 21.6288C47.1182 21.9258 47.1202 22.4081 47.4355 22.7046L52.0241 27.0001L56.6122 22.7041C56.9295 22.407 56.9283 21.9256 56.6131 21.6291L56.3549 21.3874C56.0388 21.0914 55.5274 21.0933 55.2119 21.3874L53.015 23.4451V15.6372L60.5643 15.6372L58.5754 17.9106C58.2894 18.2376 58.2904 18.7657 58.5747 19.0921L58.8084 19.3592C59.0955 19.6874 59.5617 19.6853 59.8483 19.3591L64.0004 14.612L59.8478 9.86546C59.5607 9.53724 59.0953 9.53845 58.8087 9.86462L58.575 10.1317C58.289 10.4587 58.2908 10.9878 58.5751 11.3141L60.5641 13.5869H53.0157ZM27.1059 49.037H28.4639C31.7658 49.037 34.8689 47.7743 37.2052 45.484C39.0243 43.6987 40.2065 41.4559 40.6396 39.018C38.818 38.8929 36.5275 38.7229 35.9925 38.6779C35.1925 38.6154 34.9428 38.5604 34.7161 38.4154C34.474 38.2528 33.7607 37.4977 33.2307 36.4726C32.632 35.3224 32.4282 34.6423 32.3186 34.1772C32.2702 33.9797 32.2702 33.8322 32.3135 33.7671C32.3492 33.7146 32.4562 33.6696 32.6218 33.6446C33.004 33.5746 34.581 33.4646 35.6613 33.4646C35.8931 33.4646 36.0868 33.4696 36.2294 33.4821C37.0651 33.5446 37.4575 33.7221 38.0893 34.0847C38.3309 34.225 38.8204 34.5596 39.3458 34.9186L39.3988 34.9548C39.9645 35.3424 40.446 35.6699 40.8256 35.8975C40.8256 32.4419 39.4549 29.1939 36.9632 26.7511C34.4766 24.3082 31.1645 22.963 27.646 22.963H20.3569C16.8359 22.963 13.5238 24.3082 11.0372 26.7511C8.5455 29.1939 7.1748 32.4419 7.1748 35.9125C7.55187 35.6699 8.03595 35.3424 8.599 34.9548L8.64885 34.9208C9.17541 34.5609 9.66657 34.2253 9.9111 34.0847C10.5455 33.7221 10.9327 33.5446 11.771 33.4821C11.9136 33.4696 12.1073 33.4646 12.3417 33.4646C13.4194 33.4646 14.9964 33.5746 15.3811 33.6446C15.5442 33.6696 15.6512 33.7146 15.6869 33.7671C15.7302 33.8322 15.7276 33.9797 15.6818 34.1772C15.5722 34.6423 15.3709 35.3224 14.7697 36.4726C14.2372 37.4977 13.5264 38.2528 13.2818 38.4154C13.055 38.5604 12.8079 38.6154 12.0079 38.6779C11.4703 38.7229 9.18244 38.8929 7.36079 39.018C7.79391 41.4559 8.97607 43.6987 10.7952 45.484C13.1315 47.7743 16.2346 49.037 19.534 49.037H20.8945C20.5454 48.1924 19.9046 46.731 19.2528 45.2446C18.525 43.5849 17.7836 41.8941 17.4193 40.9958C16.6627 39.1255 16.5429 37.4602 16.5429 36.6526C16.5429 32.612 19.8805 29.334 24.0002 29.334C28.1199 29.334 31.4575 32.612 31.4575 36.6526C31.4575 37.4602 31.3377 39.1255 30.5811 40.9958C30.2146 41.9029 29.4619 43.6185 28.7269 45.2939C28.0822 46.7632 27.4511 48.2017 27.1059 49.037ZM24.6911 49.0371C24.8882 49.0371 25.396 48.8828 25.6653 48.1857C25.9345 47.486 28.127 42.5186 28.127 42.5186C26.8836 43.0923 25.4849 43.4164 24 43.4164C22.5152 43.4164 21.1136 43.0923 19.873 42.5186C19.873 42.5186 22.0656 47.486 22.3348 48.1857C22.604 48.8828 23.1119 49.0371 23.3062 49.0371H24H24.6911ZM20.3908 20.0001H27.6142C36.663 20.0001 44 27.1188 44 35.9009V36.8881C44 45.0626 37.3119 51.7208 28.9523 51.9903V51.9927C28.7882 51.9976 28.6216 52.0001 28.455 52.0001H26.0968H21.9032H19.5476C19.3784 52.0001 19.2143 51.9976 19.0477 51.9927V51.9903C10.6907 51.7208 4 45.0626 4 36.8881V35.9009C4 27.1188 11.3395 20.0001 20.3908 20.0001Z" fill="#C9C9D1"/>
</svg>
