<svg width="32" height="32" viewBox="0 0 32 32" fill="none" xmlns="http://www.w3.org/2000/svg">
<g opacity="0.6">
<path fill-rule="evenodd" clip-rule="evenodd" d="M20.2314 22.5961C19.8383 23.0082 19.2828 23.0012 18.71 23.0012H16.497H14.285C13.7112 23.0012 13.1556 23.0082 12.7626 22.5961L11.4189 21.224V11.7704L11.4352 11.7544C12.8753 10.2543 14.5135 8.58715 14.9208 8.22512C15.199 8.13411 15.9993 8.0001 16.497 8.0001V5.99996C15.8622 5.99996 14.4414 6.16897 13.8655 6.507C13.7589 6.57 13.5243 6.71101 11.4189 8.87117V6.98603C11.4189 5.77395 13.5639 4.06282 14.5054 3.89881C14.8578 3.83281 15.653 3.7998 16.497 3.7998C17.5126 3.7998 18.1362 3.83281 18.4896 3.89881C19.4311 4.06282 21.575 5.77395 21.575 6.98603V8.86517C19.4727 6.71001 19.2401 6.57 19.1335 6.507C18.5587 6.16897 17.1368 5.99996 16.5021 5.99996V8.0001C16.9997 8.0001 17.8 8.13411 18.0783 8.22512C18.4835 8.58515 20.1054 10.2353 21.575 11.7624V21.2581L20.2314 22.5961ZM16.4971 28.2002C11.3256 28.1922 11.4191 25.93 11.4191 25.078V24.0459C12.1848 24.7589 13.2136 25.002 14.2851 25.002H16.4971H18.7101C19.7816 25.002 20.8094 24.785 21.5751 24.0759V25.078C21.5751 25.93 21.6686 28.1922 16.4971 28.2002ZM23.6062 10.5916V6.98636C23.6062 4.64519 20.5056 2.40503 18.9212 2.12901C18.4591 2.043 17.5126 2 16.497 2C15.5413 2 14.5348 2.043 14.0737 2.12901C12.4894 2.40503 9.3877 4.64519 9.3877 6.98636V10.5916H7V12.5918H9.3877V19.1512V22.0384V25.0776C9.3877 27.3198 10.7131 29.991 16.497 30C22.2808 29.991 23.6062 27.3198 23.6062 25.0776V22.0324V19.2372V12.5918H26V10.5916H23.6062Z" fill="#C9C9D1"/>
</g>
</svg>
