<svg width="64" height="64" viewBox="0 0 64 64" fill="none" xmlns="http://www.w3.org/2000/svg">
<path fill-rule="evenodd" clip-rule="evenodd" d="M47.7932 52C44.4509 52 41.429 50.2671 39.8772 47.5692L24.6631 47.6283C23.1008 50.2868 20.0852 52 16.7722 52C13.4781 52 10.473 50.3065 8.90442 47.648L3.17477 47.6677L0 39.5545L3.47423 34.1588L7.81754 32.6031L9.22902 36.1083L6.16943 37.1914L4.39567 39.9483L5.94954 43.9262L11.5724 43.9065L12.0478 45.1471C12.7619 47.0178 14.6634 48.2585 16.7722 48.2585C18.8936 48.2585 20.7951 46.9982 21.5051 45.1274L21.9762 43.8868L42.585 43.8277L43.0478 45.088C43.7431 46.9982 45.653 48.2585 47.7932 48.2585C49.9795 48.2585 51.8978 46.9588 52.5658 45.0092L52.947 43.9065L54.1679 43.7292C55.2108 43.5914 58.6096 42.9022 58.6096 40.3422V35.8129L56.1301 33.8634L57.6588 32.3274C54.8904 30.9489 47.0707 27.6406 35.6156 27.6406C28.9268 27.6406 23.8987 30.24 20.8957 31.776C20.125 32.1698 19.4716 32.5046 18.9418 32.7409L17.901 33.1742L2.68682 23.0523L4.98622 20L18.2863 28.8615C18.5062 28.7434 18.7366 28.6252 18.9837 28.4874C22.3218 26.7742 27.909 23.8991 35.6156 23.8991C49.6298 23.8991 58.7709 28.5858 60.4608 29.5114L64 31.4215L61.9037 33.5286L62.5885 34.08V40.3422C62.5885 44.32 59.3153 46.4468 55.9018 47.2148C54.4213 50.1292 51.2988 52 47.7932 52Z" fill="#C9C9D1"/>
</svg>
