<svg width="64" height="64" viewBox="0 0 64 64" fill="none" xmlns="http://www.w3.org/2000/svg">
<path fill-rule="evenodd" clip-rule="evenodd" d="M45.4439 49.92C42.2539 49.92 39.3659 48.16 37.8839 45.42L23.3539 45.46C21.8619 48.18 18.9819 49.92 15.8179 49.92C12.6759 49.92 9.80391 48.2 8.30391 45.5H4.15791C3.36191 45.5 2.64991 45.02 2.37591 44.26L0.117913 38.14C-0.0820872 37.6 -0.0260873 37 0.273913 36.5L2.77991 32.36C3.00991 31.98 3.36191 31.68 3.77791 31.54L14.7459 27.7C15.0199 27.56 15.6019 27.24 16.3119 26.86C19.8459 24.94 26.4239 21.38 33.8139 21.38C39.8219 21.38 42.1799 21.76 43.9699 22.2L52.4799 12.64C52.8419 12.24 53.3579 12 53.8999 12H62.3019V15.8H54.7519L46.0379 25.58C45.5639 26.12 44.8379 26.34 44.1399 26.16L43.8799 26.1C42.0619 25.62 40.3459 25.18 33.8139 25.18C27.3879 25.18 21.3619 28.44 18.1239 30.2C17.3179 30.64 16.6539 31 16.1619 31.22L5.67991 34.9L3.99791 37.68L5.48191 41.7H9.51791C10.3179 41.7 11.0339 42.2 11.3059 42.96C11.9899 44.84 13.8039 46.12 15.8179 46.12C17.8439 46.12 19.6619 44.84 20.3399 42.92C20.6079 42.18 21.3219 41.66 22.1239 41.66L39.1099 41.62H39.1159C39.9279 41.62 40.6479 42.12 40.9119 42.9C41.5779 44.82 43.3999 46.12 45.4439 46.12C47.5319 46.12 49.3639 44.78 50.0059 42.8C50.2259 42.12 50.8199 41.62 51.5339 41.52C52.5299 41.36 55.7759 40.68 55.7759 38.06V33.48L54.9419 32.78L52.1939 30.76L54.4439 27.7L57.2879 29.8L58.8979 31.14C59.3279 31.5 59.5759 32.04 59.5759 32.6V38.06C59.5759 42.1 56.4499 44.28 53.1879 45.06C51.7739 48 48.7919 49.92 45.4439 49.92Z" fill="#C9C9D1"/>
</svg>
