<svg width="32" height="32" viewBox="0 0 32 32" fill="none" xmlns="http://www.w3.org/2000/svg">
<g opacity="0.6">
<path fill-rule="evenodd" clip-rule="evenodd" d="M16.0002 28.2002C10.9817 28.1922 11.0724 25.93 11.0724 25.078V24.0459C11.8155 24.7589 12.8129 25.002 13.8527 25.002H16.0002H18.1478C19.1876 25.002 20.185 24.785 20.9281 24.0749V25.078C20.9281 25.93 21.0188 28.1922 16.0002 28.2002ZM14.0664 3.89881C14.4094 3.83281 15.1811 3.7998 16.0001 3.7998C16.9857 3.7998 17.5909 3.83281 17.9338 3.89881C18.8475 4.06282 20.928 5.77395 20.928 6.98603V8.86517C18.8879 6.71001 18.6622 6.569 18.5587 6.507C17.9999 6.16897 16.6211 5.99996 16.0051 5.99996V8.0001C16.488 8.0001 17.2646 8.13411 17.5347 8.22512C17.9279 8.58515 19.5019 10.2353 20.928 11.7624V21.2581L19.6241 22.5961C19.2427 23.0082 18.7036 23.0012 18.1477 23.0012H16.0001H13.8526C13.2967 23.0012 12.7576 23.0082 12.3762 22.5961L11.0723 21.224V11.7704L11.088 11.7544C12.4856 10.2543 14.0753 8.58715 14.4705 8.22512C14.7406 8.13411 15.5172 8.0001 16.0001 8.0001V5.99996C15.3842 5.99996 14.0053 6.16897 13.4465 6.507C13.342 6.57 13.1154 6.71101 11.0723 8.87117V6.98603C11.0723 5.77395 13.1528 4.06282 14.0664 3.89881ZM25.221 12.5918H27V10.5916H25.221H22.899V6.98636C22.899 4.64519 19.8901 2.40503 18.3526 2.12901C17.9041 2.043 16.9856 2 16 2C15.0726 2 14.0959 2.043 13.6474 2.12901C12.1099 2.40503 9.10098 4.64519 9.10098 6.98636V10.5916H6.7829H5V12.5918H6.7829H9.10098V19.1512V19.2292H5V21.2294H9.10098V22.0384V25.0776C9.10098 27.3198 10.3872 29.991 16 30C21.6128 29.991 22.899 27.3198 22.899 25.0776V22.0324V21.2294H27V19.2292H22.899V12.5918H25.221Z" fill="#646669"/>
</g>
</svg>
