<svg width="32" height="32" viewBox="0 0 32 32" fill="none" xmlns="http://www.w3.org/2000/svg">
<path fill-rule="evenodd" clip-rule="evenodd" d="M16.5004 28.2002C11.3962 28.1922 11.4884 25.9301 11.4884 25.078V24.0439C12.2442 24.758 13.2576 25.002 14.3162 25.002H16.5004H18.6846C19.7421 25.002 20.7566 24.785 21.5124 24.0759V25.078C21.5124 25.9301 21.6046 28.1922 16.5004 28.2002ZM11.4883 11.8643L11.5023 11.8563C12.9247 10.3562 14.5416 8.63805 14.9445 8.27602C15.2182 8.18501 16.5003 8 16.5003 8C16.5003 8 17.7823 8.13401 18.056 8.22502C18.4559 8.58504 20.0598 10.2382 21.5123 11.7663V11.8583L21.5112 11.8603L21.5123 11.8613V21.2229L21.5112 21.2239L21.5123 21.2269V21.2579L20.1861 22.596C19.7982 23.0081 19.2498 23.0011 18.6845 23.0011H16.5003H14.316C13.7507 23.0011 13.2044 23.0081 12.8175 22.596L11.4883 21.2209V11.8643ZM14.5326 3.89881C14.8814 3.83281 15.6653 3.7998 16.4983 3.7998C17.5007 3.7998 18.1171 3.83281 18.466 3.89881C19.3952 4.06282 21.5123 5.77395 21.5123 6.98603V8.96617C20.3745 7.81509 19.1646 6.597 19.0995 6.559C18.5321 6.22098 17.5027 5.99996 16.5003 5.99996C15.4979 5.99996 14.4684 6.16997 13.9031 6.507C13.7968 6.57 13.5652 6.71101 11.4883 8.87017V6.98603C11.4883 5.77395 13.6033 4.06282 14.5326 3.89881ZM27.3144 19.1172L23.5173 20.4963V19.2372V13.0008V12.5898L27.3144 13.9679L28 12.0887L23.5173 10.4606V6.98636C23.5173 4.64519 20.456 2.40503 18.8922 2.12901C18.4361 2.043 17.5009 2 16.4985 2C15.5552 2 14.5629 2.043 14.1068 2.12901C12.543 2.40503 9.48372 4.64519 9.48372 6.98636V10.4606L5 12.0887L5.68564 13.9679L9.48372 12.5888V13.0008V19.1462V20.4963L5.68564 19.1172L5 20.9964L9.48372 22.6245V25.0776C9.48372 27.3198 10.7919 29.991 16.5005 30C22.2092 29.991 23.5173 27.3198 23.5173 25.0776V22.6245L28 20.9964L27.3144 19.1172Z" fill="#C9C9D1"/>
</svg>
