<?xml version="1.0" encoding="UTF-8"?>
<svg id="Layer_1" data-name="Layer 1" xmlns="http://www.w3.org/2000/svg" viewBox="0 0 208.22 284.92">
  <defs>
    <style>
      .cls-1 {
        fill: #b84445;
      }
    </style>
  </defs>
  <path class="cls-1" d="M0,0v284.92h208.22V0H0ZM192.88,269.03H15.49V15.98h177.39v253.06Z"/>
  <polygon class="cls-1" points="104.41 65.74 157.09 118.42 177 98.51 104.48 25.99 104.41 26.06 104.35 25.99 31.83 98.51 51.74 118.42 104.41 65.74"/>
  <rect class="cls-1" x="51.89" y="126.68" width="107.47" height="27.67"/>
  <polygon class="cls-1" points="48.54 257.56 105.51 200.59 162.48 257.56 182.04 237.99 133.74 189.69 179.67 189.69 179.67 162.02 106.07 162.02 106.05 162 106.03 162.02 104.99 162.02 104.97 162 104.95 162.02 31.35 162.02 31.35 189.69 77.28 189.69 28.98 237.99 48.54 257.56"/>
</svg>